<svg xmlns="http://www.w3.org/2000/svg" viewBox="0 0 377.6 283"><defs><style>.cls-1{fill:#6b6b6b;}.cls-2,.cls-3{fill:none;stroke:#000;stroke-miterlimit:10;}.cls-2{stroke-width:4px;}.cls-4{fill:#fff;}.cls-5{font-size:23px;font-family:CenturyGothic-Bold, Century Gothic;font-weight:700;letter-spacing:1.36em;}.cls-6{font-size:72px;font-family:Damion, Damion;letter-spacing:0.3em;}</style></defs><title>cliff_creative_logo_final</title><g id="colour_shade" data-name="colour shade"><polygon id="left_colour_shade" data-name="left colour shade" class="cls-1" points="8.96 233.96 18.76 190.66 51.53 156.67 58.94 159 88.27 143.5 96.19 127.3 98.27 146.33 63.6 181 58.94 170 24.27 205.67 8.96 233.96"/><polygon id="middle_grey_shade_1" data-name="middle grey shade 1" class="cls-1" points="74.27 240.33 63.85 240.33 91.27 190.59 110.1 171.31 123.6 170 138.14 162.96 124.53 176.27 107.6 179 74.27 240.33"/><polygon id="middle_grey_shade_2" data-name="middle grey shade 2" class="cls-1" points="185.98 103.29 181.94 134.39 200.53 161.15 181.94 190 144.94 188.33 132.27 211.67 132.27 219 149.6 199.75 161.6 217 215.6 209 231.6 176 213.1 136.33 194.94 123.67 191.6 110.5 185.98 103.29"/><path class="cls-1" d="M287.6,240.33h27l-18.83-38.72,18.83-16.94L287.6,151l-9.7-24.87a.5.5,0,0,0-1,.18V165l10.66,14.19-20.55,23.6,9.72,4.63Z"/></g><g id="Mountain_outline" data-name="Mountain outline"><polyline id="right_cliff" data-name="right cliff" class="cls-2" points="5.51 240.33 16.94 189.67 52.94 152.33 84.6 129"/><polyline id="right_cliff-2" data-name="right cliff" class="cls-2" points="75.27 135.88 82.27 115 84.6 112.33 99.6 99.67 113.94 109.67 126.94 121.67 132.27 131.67 108.27 150.33 60.17 238.94"/><polyline id="middle_cliff" data-name="middle cliff" class="cls-3" points="132.27 131.67 148.27 121.67 171.6 71.67 234.27 135 238.27 142.33 235.6 153 240.85 161.3 267.99 204.28 264.27 208.33 285.6 238.88"/><polyline id="right_cliff-3" data-name="right cliff" class="cls-2" points="240.85 161.3 276.94 123.67 313.6 135 330.6 160 347.6 171.31 372.94 240.33"/></g><g id="dark_shades" data-name="dark shades"><path id="left_dark_shade" data-name="left dark shade" d="M5.51,240.33l18.76-34.66L58.94,170l4.66,11,34.67-34.67L95.6,122l7.75-19.72,6.25,5.22a139.91,139.91,0,0,1,16.54,13.77l6.13,10.4-24,18.66-49.33,90Z"/><polygon id="middle_dark_shade" data-name="middle dark shade" points="287.6 240.33 74.27 240.33 107.6 179 124.53 176.27 138.21 162.89 132.27 187.5 132.27 219 149.6 199.75 161.6 217 215.6 209 231.6 176 213.1 136.33 194.94 123.67 191.6 110.5 177.64 92.61 158.1 135 149.1 135 142.6 143.5 142.1 135 111.85 153.25 63.85 240.33 58.94 240.33 108.27 150.33 132.27 131.67 148.27 121.67 171.6 71.67 234.27 135 238.1 142 235.85 152.75 267.05 202.79 276.94 207.5 287.6 240.33"/><polygon id="right_dark_shade" data-name="right dark shade" points="372.94 240.33 314.6 240.33 295.77 201.61 314.6 184.67 287.6 151 276.94 123.67 311.81 134.45 330.6 160 347.6 171.31 372.94 240.33"/></g><g id="white_details" data-name="white details"><polygon id="large_white_space" data-name="large white space" class="cls-4" points="241.3 191.96 246.27 203.67 242.1 211.25 240.38 220.85 229.98 226.13 233.43 210.16 240.32 203.09 241.3 191.96"/><path id="small_white_shape" data-name="small white shape" class="cls-4" d="M258.48,215l3.28,2.18,1.87,1.19-.42,4.18,1.56,5.82-4.32-3.93c-.66-.7-1.56-4.61-1.66-5.57l-3.64-3.54Z"/><polygon id="right_white_shape" data-name="right white shape" class="cls-4" points="276.94 126.55 242.32 162.67 267.4 202.38 287.6 179.19 276.94 165.17 276.94 126.55"/><polygon id="middle_white_shape" data-name="middle white shape" class="cls-4" points="132.27 211.67 144.94 188.33 181.94 190 200.53 161.15 181.94 134.39 185.98 103.29 177.64 92.61 158.1 135 149.1 135 142.6 143.5 142.1 135 111.85 153.25 91.27 190.59 110.1 171.31 123.6 170 138.14 162.96 132.27 187.5 132.27 211.67"/><polygon id="left_white_shape" data-name="left white shape" class="cls-4" points="51.53 156.67 58.94 159 88.27 143.5 96.19 127.3 95.6 122 102.6 104.2 99.72 102.18 86.44 113.42 84.02 116 78.76 131.68 84.6 130.59 76.44 137.5 54.27 153.83 51.53 156.67"/></g><g id="CREATIVES"><text class="cls-5" transform="translate(5.83 277.24)">CREATIVES</text></g><g id="CLIFF"><text class="cls-6" transform="translate(84.97 55.68)">Cliff</text></g></svg>