<svg xmlns="http://www.w3.org/2000/svg" viewBox="0 0 377.6 180"><defs><style>.cls-1{fill:#6b6b6b;}.cls-2,.cls-3{fill:none;stroke:#000;stroke-miterlimit:10;}.cls-2{stroke-width:4px;}.cls-4{fill:#fff;}</style></defs><title>cliff_creative_mobile_logo</title><g id="colour_shade" data-name="colour shade"><polygon id="left_colour_shade" data-name="left colour shade" class="cls-1" points="8.96 168.96 18.76 125.66 51.53 91.67 58.94 94 88.27 78.5 96.19 62.3 98.27 81.33 63.6 116 58.94 105 24.27 140.67 8.96 168.96"/><polygon id="middle_grey_shade_1" data-name="middle grey shade 1" class="cls-1" points="74.27 175.33 63.85 175.33 91.27 125.59 110.1 106.31 123.6 105 138.14 97.95 124.53 111.27 107.6 114 74.27 175.33"/><polygon id="middle_grey_shade_2" data-name="middle grey shade 2" class="cls-1" points="185.98 38.29 181.94 69.39 200.53 96.15 181.94 125 144.94 123.33 132.27 146.67 132.27 154 149.6 134.75 161.6 152 215.6 144 231.6 111 213.1 71.33 194.94 58.67 191.6 45.5 185.98 38.29"/><path class="cls-1" d="M287.6,175.33h27l-18.83-38.72,18.83-16.94L287.6,86l-9.7-24.87a.5.5,0,0,0-1,.18V100l10.66,14.19-20.55,23.6,9.72,4.63Z"/></g><g id="Mountain_outline" data-name="Mountain outline"><polyline id="right_cliff" data-name="right cliff" class="cls-2" points="5.51 175.33 16.94 124.67 52.94 87.33 84.6 64"/><polyline id="right_cliff-2" data-name="right cliff" class="cls-2" points="75.27 70.88 82.27 50 84.6 47.33 99.6 34.67 113.94 44.67 126.94 56.67 132.27 66.67 108.27 85.33 60.17 173.94"/><polyline id="middle_cliff" data-name="middle cliff" class="cls-3" points="132.27 66.67 148.27 56.67 171.6 6.67 234.27 70 238.27 77.33 235.6 88 240.85 96.3 267.99 139.28 264.27 143.33 285.6 173.88"/><polyline id="right_cliff-3" data-name="right cliff" class="cls-2" points="240.85 96.3 276.94 58.67 313.6 70 330.6 95 347.6 106.31 372.94 175.33"/></g><g id="dark_shades" data-name="dark shades"><path id="left_dark_shade" data-name="left dark shade" d="M5.51,175.33l18.76-34.66L58.94,105l4.66,11L98.27,81.33,95.6,57l7.75-19.72,6.25,5.22a139.91,139.91,0,0,1,16.54,13.77l6.13,10.4-24,18.66-49.33,90Z"/><polygon id="middle_dark_shade" data-name="middle dark shade" points="287.6 175.33 74.27 175.33 107.6 114 124.53 111.27 138.21 97.89 132.27 122.5 132.27 154 149.6 134.75 161.6 152 215.6 144 231.6 111 213.1 71.33 194.94 58.67 191.6 45.5 177.64 27.61 158.1 70 149.1 70 142.6 78.5 142.1 70 111.85 88.25 63.85 175.33 58.94 175.33 108.27 85.33 132.27 66.67 148.27 56.67 171.6 6.67 234.27 70 238.1 77 235.85 87.75 267.05 137.79 276.94 142.5 287.6 175.33"/><polygon id="right_dark_shade" data-name="right dark shade" points="372.94 175.33 314.6 175.33 295.77 136.61 314.6 119.67 287.6 86 276.94 58.67 311.81 69.45 330.6 95 347.6 106.31 372.94 175.33"/></g><g id="white_details" data-name="white details"><polygon id="large_white_space" data-name="large white space" class="cls-4" points="241.3 126.96 246.27 138.67 242.1 146.25 240.38 155.85 229.98 161.13 233.43 145.16 240.32 138.09 241.3 126.96"/><path id="small_white_shape" data-name="small white shape" class="cls-4" d="M258.48,150l3.28,2.18,1.87,1.19-.42,4.18,1.56,5.82-4.32-3.93c-.66-.7-1.56-4.61-1.66-5.57l-3.64-3.54Z"/><polygon id="right_white_shape" data-name="right white shape" class="cls-4" points="276.94 61.55 242.32 97.67 267.4 137.38 287.6 114.19 276.94 100.17 276.94 61.55"/><polygon id="middle_white_shape" data-name="middle white shape" class="cls-4" points="132.27 146.67 144.94 123.33 181.94 125 200.53 96.15 181.94 69.39 185.98 38.29 177.64 27.61 158.1 70 149.1 70 142.6 78.5 142.1 70 111.85 88.25 91.27 125.59 110.1 106.31 123.6 105 138.14 97.95 132.27 122.5 132.27 146.67"/><polygon id="left_white_shape" data-name="left white shape" class="cls-4" points="51.53 91.67 58.94 94 88.27 78.5 96.19 62.3 95.6 57 102.6 39.2 99.72 37.18 86.44 48.42 84.02 51 78.76 66.68 84.6 65.59 76.44 72.5 54.27 88.83 51.53 91.67"/></g></svg>